<svg width="132" height="132" viewBox="0 0 132 132" fill="none" xmlns="http://www.w3.org/2000/svg">
<rect x="2" y="2" width="128" height="128" rx="64" fill="#ED1D2A"/>
<rect x="2" y="2" width="128" height="128" rx="64" stroke="white" stroke-width="4"/>
<path d="M42.4172 62.2173L42.6962 62.2171C44.2782 62.2162 45.8244 61.7463 47.1393 60.8667C48.4542 59.9872 49.4788 58.7375 50.0836 57.2757C50.6883 55.8139 50.8461 54.2057 50.5369 52.6542C50.2278 51.1028 49.4655 49.6778 48.3466 48.5595C47.2276 47.4412 45.8023 46.6798 44.2506 46.3715C42.699 46.0632 41.0908 46.2219 39.6294 46.8275C38.1679 47.4331 36.9188 48.4584 36.04 49.7738C35.1613 51.0891 34.6922 52.6355 34.6922 54.2173L42.4172 62.2173ZM42.4172 62.2173C40.396 62.1461 38.4724 61.312 37.0374 59.877C35.5364 58.376 34.6929 56.3404 34.6922 54.2176L42.4172 62.2173ZM78.496 77.0851L78.3488 77.1669C77.9505 77.3577 77.5597 77.3715 77.12 77.2311C76.5886 77.0614 75.9649 76.6555 75.2483 75.9688L73.0205 73.8339L73.5725 76.8696C73.8338 78.3068 73.9869 79.8613 73.9869 81.4903C73.9869 85.1364 73.2716 88.3852 72.166 90.6854C71.0247 93.0595 69.6471 94.1023 68.4628 94.1023C67.8178 94.1023 67.2982 93.802 66.8293 93.0384C66.3321 92.2285 65.9596 90.9844 65.7101 89.3451L63.7328 89.3454C63.4819 90.9971 63.1095 92.2394 62.6121 93.0449C62.1453 93.8009 61.624 94.1023 60.9649 94.1023C59.7725 94.1023 58.397 93.0595 57.2603 90.6874C56.1584 88.3879 55.4484 85.1389 55.4484 81.4903V81.4895C55.4471 79.939 55.585 78.3916 55.8605 76.8658L56.4097 73.8231L54.1827 75.9679C53.4736 76.6508 52.8519 77.0536 52.3214 77.2219C51.8321 77.3772 51.4019 77.3426 50.9585 77.0902L50.9586 77.0901L50.9487 77.0846C49.9017 76.5041 49.2046 74.9236 49.3611 72.3002C49.5127 69.7565 50.4679 66.575 52.2349 63.3925L52.235 63.3922C53.5906 60.9491 55.2074 58.9349 56.8353 57.4528C59.1722 58.9911 61.9124 59.8188 64.7219 59.825L64.7272 59.825C67.5321 59.8161 70.2671 58.9885 72.6002 57.4527C74.2295 58.9349 75.8493 60.9472 77.1994 63.3907L77.2002 63.3921C78.9661 66.5762 79.9221 69.7581 80.0756 72.3018C80.2339 74.9259 79.5391 76.5053 78.496 77.0851ZM86.7118 62.2176L86.5965 62.2209C84.5271 62.1832 82.5504 61.345 81.0839 59.8789C79.5828 58.3782 78.7393 56.3427 78.739 54.22C78.7387 52.0974 79.5816 50.0616 81.0823 48.5605C82.5796 47.0628 84.6092 46.2198 86.7265 46.2156C88.8027 46.2801 90.7728 47.1491 92.2202 48.6395C93.6711 50.1334 94.4826 52.1339 94.4826 54.2163C94.4826 56.2988 93.6711 58.2993 92.2202 59.7932C90.7693 61.2871 88.7934 62.1567 86.7118 62.2176ZM93.1956 64.4187C94.4822 65.6111 95.7579 67.2141 96.8325 69.1575L96.8317 69.1581C98.2707 71.75 99.0447 74.3346 99.1684 76.3902C99.297 78.5261 98.7246 79.7265 97.9631 80.15L97.9568 80.1535L97.9505 80.1571C97.6309 80.341 97.3309 80.3664 96.9744 80.2528C96.5749 80.1254 96.0862 79.8129 95.5086 79.2575L93.2803 77.1153L93.8315 80.1568C94.0448 81.3332 94.1743 82.5982 94.1743 83.9247C94.1743 86.8952 93.5898 89.5341 92.6955 91.3933C91.7654 93.3271 90.6799 94.0972 89.8186 94.0972C89.361 94.0972 88.9848 93.8957 88.6246 93.31C88.2353 92.677 87.9346 91.685 87.7324 90.3457L85.7548 90.3456C85.5514 91.6927 85.2495 92.6835 84.8598 93.3136C84.5004 93.8948 84.1231 94.0972 83.6584 94.0972C82.7862 94.0972 81.7021 93.3264 80.777 91.3951C79.8866 89.5361 79.3079 86.8957 79.3079 83.9196C79.3079 83.1192 79.3636 82.3458 79.4536 81.5898C79.8897 81.4637 80.3111 81.2893 80.71 81.0694L80.7117 81.0685C83.6092 79.4638 84.8816 76.1161 84.6284 72.0236C84.5141 70.0438 84.0349 67.9185 83.2681 65.7851C84.3641 66.1275 85.53 66.3184 86.7462 66.3184L86.7494 66.3184C89.0406 66.311 91.276 65.649 93.1956 64.4187ZM48.7069 81.06L49.3658 81.4263L49.405 81.3872C49.5957 81.4633 49.79 81.5298 49.9874 81.5864C50.078 82.3438 50.1351 83.1195 50.1351 83.9247C50.1351 86.8955 49.5518 89.5345 48.6582 91.3936C47.729 93.3267 46.6435 94.0972 45.7795 94.0972C45.3256 94.0972 44.9503 93.8969 44.5893 93.31C44.1996 92.6763 43.8977 91.6836 43.693 90.3439L41.7157 90.3455C41.5123 91.6912 41.2105 92.6814 40.8208 93.3112C40.4614 93.8921 40.084 94.0946 39.6193 94.0946C38.7468 94.0946 37.6628 93.3241 36.7378 91.394C35.8475 89.5362 35.2689 86.8974 35.2688 83.9229C35.2709 82.6593 35.3816 81.3982 35.5997 80.1536L36.1286 77.1344L33.921 79.2608C33.3488 79.8119 32.8618 80.1221 32.4633 80.2485C32.1063 80.3617 31.806 80.3357 31.4887 80.1538L31.4822 80.1501L31.4756 80.1465C30.7141 79.7249 30.1402 78.5266 30.2672 76.3907C30.3895 74.3355 31.1621 71.75 32.6009 69.1558C33.6811 67.2118 34.9568 65.6078 36.2417 64.4168C38.1072 65.6079 40.3121 66.3209 42.6994 66.3209L42.7031 66.3209C43.8888 66.3165 45.0621 66.1345 46.1852 65.7849C45.143 68.7109 44.6849 71.5297 44.849 73.9808C45.0554 77.064 46.2686 79.7046 48.7069 81.06ZM68.5936 54.547C67.3672 55.0391 66.0552 55.2823 64.7339 55.2626C62.1177 55.2235 59.6218 54.1571 57.7852 52.2935C55.9486 50.4299 54.9187 47.9188 54.9177 45.3023C54.9168 42.6858 55.945 40.1739 57.7803 38.3091C59.6156 36.4442 62.1107 35.376 64.7269 35.3351C66.0482 35.3144 67.3603 35.5567 68.5871 36.048C69.8138 36.5392 70.9306 37.2695 71.8724 38.1964C72.8142 39.1233 73.5623 40.2283 74.0731 41.447C74.5839 42.6657 74.8471 43.9739 74.8476 45.2953C74.8481 46.6167 74.5857 47.925 74.0758 49.1441C73.5659 50.3632 72.8186 51.4687 71.8774 52.3962C70.9362 53.3238 69.8199 54.0549 68.5936 54.547Z" stroke="white" stroke-width="2"/>
<circle cx="42.5" cy="54.5" r="6.5" fill="#ED1D2A"/>
</svg>
