<svg width="132" height="132" viewBox="0 0 132 132" fill="none" xmlns="http://www.w3.org/2000/svg">
<rect x="2" y="2" width="128" height="128" rx="64" fill="#ED1D2A"/>
<rect x="2" y="2" width="128" height="128" rx="64" stroke="white" stroke-width="4"/>
<path d="M87.5291 28.7789L87.5286 28.779C84.7531 28.9722 81.5982 30.1819 78.2341 32.9233C78.1797 32.9677 78.1437 33.0374 78.1589 33.1529C78.1754 33.2781 78.251 33.4065 78.3681 33.4826C78.6228 33.6479 78.874 33.8278 79.1215 34.0225L79.1215 34.0226C81.2022 35.6602 82.2043 37.416 82.2621 39.0383C82.3209 40.6868 81.3954 42.0168 80.0255 42.698C79.7871 42.8166 79.4503 43.1697 79.2186 43.6503C78.9769 44.1516 78.9797 44.5125 79.043 44.65C80.0839 46.9104 79.8146 48.9887 78.5336 50.3892C77.2809 51.7587 75.212 52.3105 72.9849 51.8907C72.8387 51.8631 72.5412 51.9272 72.1689 52.2129C71.8129 52.4862 71.5445 52.8471 71.4432 53.1201C70.9598 54.4231 69.8023 55.2803 68.3996 55.5483C66.9988 55.816 65.3478 55.5066 63.7411 54.5217C63.6355 54.457 63.5104 54.4418 63.4073 54.4675C63.3107 54.4916 63.2552 54.5432 63.227 54.6073C60.5933 60.5999 60.0149 64.828 59.8985 68.3747C59.8412 70.1192 60.098 70.8824 60.1963 71.0611L60.1965 71.0614C60.2103 71.0865 60.2216 71.1064 60.2308 71.1221C60.2447 71.1261 60.261 71.1306 60.2803 71.1359C60.3209 71.1469 60.364 71.1582 60.4216 71.1735C60.532 71.2026 60.6542 71.2222 60.8297 71.2504C60.9382 71.2678 61.067 71.2885 61.226 71.3167C61.6013 71.3834 62.0584 71.4812 62.5651 71.6629C62.5651 71.6629 62.5652 71.663 62.5653 71.663L62.312 72.3689C62.8684 72.5684 63.4705 72.9505 63.9744 73.504C64.1761 73.7256 64.4461 73.88 64.7453 73.8954C70.8374 74.2085 79.7279 74.2218 91.7855 67.9894C98.9737 64.2743 102.557 58.533 103.677 52.4644L87.5291 28.7789ZM87.5291 28.7789C87.8328 28.7576 88.1371 28.748 88.4415 28.7503L87.5291 28.7789ZM29.168 91.6096L29.168 91.6096L29.1734 91.6031C29.6986 90.9636 30.1475 90.5992 30.5673 90.3703C30.9874 90.1413 31.4224 90.0234 31.9662 89.933C32.2 89.8941 32.4546 89.861 32.7315 89.825C33.7394 89.694 35.0439 89.5244 36.7283 88.8969L36.4664 88.1941C40.2804 86.7732 49.3866 80.1209 56.2125 73.923C56.6684 73.509 57.3892 73.6043 57.8704 73.9889C58.3905 74.4045 58.9715 74.661 59.4638 74.7911L59.2717 75.5161C59.2718 75.5162 59.2719 75.5162 59.2721 75.5162C59.7235 75.6358 60.1202 75.7072 60.4314 75.7626C60.7716 75.8232 60.9437 75.8555 61.0469 75.8926L61.0476 75.8928L61.0497 75.8935C57.2448 79.0982 52.9198 82.8082 49.2644 86.6403C45.4886 90.5986 42.3331 94.7813 41.2681 98.7524C40.3684 101.997 38.8141 103.09 37.6567 103.205C36.4881 103.321 35.2987 102.496 34.9124 100.995C34.8084 100.591 34.5316 100.123 34.2401 99.6993C33.9317 99.2509 33.5445 98.7635 33.1417 98.3004C32.7383 97.8366 32.3103 97.3868 31.9165 97.0146C31.5371 96.656 31.1443 96.3259 30.8182 96.1441C29.9267 95.6469 29.2422 94.7808 28.9313 93.8762C28.6181 92.9652 28.7175 92.1456 29.168 91.6096ZM61.3211 76.2057L61.8643 75.9747L62.0112 75.9122L61.867 75.9778L61.3285 76.2228C61.3259 76.2171 61.3235 76.2114 61.3211 76.2057ZM62.0112 75.9122C61.7747 75.356 61.6629 75.3161 61.3303 75.1974C61.3205 75.1939 61.3106 75.1903 61.3004 75.1867L62.0112 75.9122ZM93.2476 57.6948C96.3897 55.7461 98.617 53.5534 99.9094 51.1089C101.209 48.6509 101.534 45.9915 100.959 43.1802C100.867 42.7298 100.618 42.3658 100.256 42.1414C99.9073 41.9255 99.5093 41.8722 99.1516 41.9207C98.4491 42.0159 97.7292 42.5323 97.5313 43.3956C96.5807 47.5422 94.2023 51.4255 91.1544 55.1685C90.5808 55.873 90.6422 56.7583 91.0976 57.3427C91.5676 57.9459 92.4389 58.1963 93.2476 57.6948ZM75.6036 71.446C84.6458 70.2754 91.7533 65.7473 97.0067 60.3512C97.3217 60.0276 97.5011 59.6308 97.5089 59.2117C97.5166 58.7994 97.3566 58.425 97.1026 58.1473C96.5825 57.5787 95.6887 57.4212 94.9081 57.9222C88.6124 61.9634 81.7078 65.5632 74.8795 68.3452C74.0409 68.6868 73.6494 69.4858 73.8001 70.2305C73.8737 70.5947 74.0786 70.9393 74.4101 71.1739C74.7467 71.412 75.1647 71.5028 75.6036 71.446Z" stroke="white" stroke-width="1.5"/>
</svg>
