<svg width="48" height="45" viewBox="0 0 48 45" fill="none" xmlns="http://www.w3.org/2000/svg">
<path d="M8.22857 10.1782C8.22857 8.37792 8.87877 6.65141 10.0361 5.37845C11.1935 4.10549 12.7632 3.39034 14.4 3.39034C16.0368 3.39034 17.6065 4.10549 18.7639 5.37845C19.9212 6.65141 20.5714 8.37792 20.5714 10.1782C20.5714 11.9784 19.9212 13.7049 18.7639 14.9779C17.6065 16.2508 16.0368 16.966 14.4 16.966C12.7632 16.966 11.1935 16.2508 10.0361 14.9779C8.87877 13.7049 8.22857 11.9784 8.22857 10.1782ZM14.4 0.373535C12.0358 0.373535 9.7684 1.40652 8.09665 3.24524C6.4249 5.08397 5.48571 7.57781 5.48571 10.1782C5.48571 12.7785 6.4249 15.2724 8.09665 17.1111C9.7684 18.9498 12.0358 19.9828 14.4 19.9828C16.7642 19.9828 19.0316 18.9498 20.7034 17.1111C22.3751 15.2724 23.3143 12.7785 23.3143 10.1782C23.3143 7.57781 22.3751 5.08397 20.7034 3.24524C19.0316 1.40652 16.7642 0.373535 14.4 0.373535ZM23.3143 22.9996C24 23.0036 24.6464 23.1333 25.2535 23.3888C23.9205 23.8775 22.7685 24.8067 21.9429 26.0164H5.48571C4.75826 26.0164 4.06061 26.3342 3.54622 26.9C3.03184 27.4658 2.74286 28.2331 2.74286 29.0332V29.2685L2.76206 29.5189C2.9109 30.965 3.37991 32.3489 4.128 33.5494C5.46377 35.6732 8.26423 38.0836 14.4 38.0836C17.0139 38.0836 19.0245 37.6462 20.5714 36.9795V39.592C20.5714 39.7851 20.5778 39.9762 20.5906 40.1652C18.8846 40.7505 16.8411 41.1004 14.4 41.1004C7.5072 41.1004 3.79337 38.325 1.87063 35.2659C0.858236 33.6436 0.226873 31.7707 0.0329142 29.8146C0.0172665 29.639 0.00629046 29.4629 0 29.2866V29.0332C0 27.433 0.577957 25.8983 1.60673 24.7668C2.6355 23.6353 4.03081 22.9996 5.48571 22.9996H23.3143ZM31.5429 12.4408C31.5429 11.2406 31.9763 10.0896 32.7479 9.24096C33.5195 8.39232 34.566 7.91555 35.6571 7.91555C36.7483 7.91555 37.7948 8.39232 38.5664 9.24096C39.338 10.0896 39.7714 11.2406 39.7714 12.4408C39.7714 13.6409 39.338 14.7919 38.5664 15.6406C37.7948 16.4892 36.7483 16.966 35.6571 16.966C34.566 16.966 33.5195 16.4892 32.7479 15.6406C31.9763 14.7919 31.5429 13.6409 31.5429 12.4408ZM35.6571 4.89875C33.8385 4.89875 32.0944 5.69335 30.8084 7.10775C29.5224 8.52216 28.8 10.4405 28.8 12.4408C28.8 14.441 29.5224 16.3594 30.8084 17.7738C32.0944 19.1882 33.8385 19.9828 35.6571 19.9828C37.4758 19.9828 39.2199 19.1882 40.5059 17.7738C41.7918 16.3594 42.5143 14.441 42.5143 12.4408C42.5143 10.4405 41.7918 8.52216 40.5059 7.10775C39.2199 5.69335 37.4758 4.89875 35.6571 4.89875ZM23.3143 30.5416C23.3143 29.3414 23.7478 28.1904 24.5193 27.3418C25.2909 26.4932 26.3374 26.0164 27.4286 26.0164H43.8857C44.9769 26.0164 46.0234 26.4932 46.795 27.3418C47.5665 28.1904 48 29.3414 48 30.5416V39.592C48 40.7922 47.5665 41.9432 46.795 42.7918C46.0234 43.6405 44.9769 44.1172 43.8857 44.1172H27.4286C26.3374 44.1172 25.2909 43.6405 24.5193 42.7918C23.7478 41.9432 23.3143 40.7922 23.3143 39.592V30.5416ZM26.0571 30.5416V33.5584C27.1483 33.5584 28.1948 33.0817 28.9664 32.233C29.738 31.3844 30.1714 30.2334 30.1714 29.0332H27.4286C27.4286 29.4333 27.2841 29.8169 27.0269 30.0998C26.7697 30.3827 26.4209 30.5416 26.0571 30.5416ZM45.2571 33.5584V30.5416C44.8934 30.5416 44.5446 30.3827 44.2874 30.0998C44.0302 29.8169 43.8857 29.4333 43.8857 29.0332H41.1429C41.1429 30.2334 41.5763 31.3844 42.3479 32.233C43.1195 33.0817 44.166 33.5584 45.2571 33.5584ZM41.1429 41.1004H43.8857C43.8857 40.7004 44.0302 40.3167 44.2874 40.0338C44.5446 39.751 44.8934 39.592 45.2571 39.592V36.5752C44.166 36.5752 43.1195 37.052 42.3479 37.9006C41.5763 38.7493 41.1429 39.9003 41.1429 41.1004ZM26.0571 36.5752V39.592C26.4209 39.592 26.7697 39.751 27.0269 40.0338C27.2841 40.3167 27.4286 40.7004 27.4286 41.1004H30.1714C30.1714 39.9003 29.738 38.7493 28.9664 37.9006C28.1948 37.052 27.1483 36.5752 26.0571 36.5752ZM35.6571 39.592C36.7483 39.592 37.7948 39.1153 38.5664 38.2666C39.338 37.418 39.7714 36.267 39.7714 35.0668C39.7714 33.8667 39.338 32.7157 38.5664 31.867C37.7948 31.0184 36.7483 30.5416 35.6571 30.5416C34.566 30.5416 33.5195 31.0184 32.7479 31.867C31.9763 32.7157 31.5429 33.8667 31.5429 35.0668C31.5429 36.267 31.9763 37.418 32.7479 38.2666C33.5195 39.1153 34.566 39.592 35.6571 39.592Z" fill="#ED1D2A"/>
</svg>
