<svg width="46" height="42" viewBox="0 0 46 42" fill="none" xmlns="http://www.w3.org/2000/svg">
<path d="M21.3661 2.39443C22.01 1.00146 23.99 1.00146 24.6339 2.39443L28.9283 11.6845C29.5511 13.0318 30.8388 13.9503 32.3154 14.1006L42.6115 15.1485C44.1798 15.3081 44.7999 17.2638 43.6099 18.2979L36.0737 24.8469C34.9131 25.8555 34.3964 27.4177 34.7267 28.9194L36.8558 38.599C37.189 40.1137 35.5783 41.3126 34.2229 40.5588L25.0414 35.4523C23.772 34.7463 22.228 34.7463 20.9586 35.4523L11.7771 40.5588C10.4217 41.3126 8.81104 40.1137 9.14421 38.599L11.2733 28.9194C11.6036 27.4177 11.0869 25.8555 9.92632 24.8469L2.39009 18.2979C1.20015 17.2638 1.82016 15.3081 3.38853 15.1485L13.6846 14.1006C15.1612 13.9503 16.4489 13.0318 17.0717 11.6845L21.3661 2.39443Z" stroke="#ED1D2A" stroke-width="2.4"/>
</svg>
