<svg width="132" height="132" viewBox="0 0 132 132" fill="none" xmlns="http://www.w3.org/2000/svg">
<rect x="2" y="2" width="128" height="128" rx="64" fill="#ED1D2A"/>
<rect x="2" y="2" width="128" height="128" rx="64" stroke="white" stroke-width="4"/>
<path d="M66.6291 97.8874L66.6218 97.8914C66.4307 97.9942 66.217 98.048 66 98.048C65.783 98.048 65.5693 97.9942 65.3782 97.8913L65.3709 97.8875C64.7053 97.5351 56.134 92.8628 47.7481 85.5188C39.2965 78.1172 31.3753 68.2983 31.375 57.6725C31.3808 52.7386 33.3433 48.0084 36.8321 44.5196C40.3209 41.0308 45.0511 39.0683 49.985 39.0625C56.2339 39.0627 61.643 41.7437 65.0004 46.2153L66 47.5466L66.9996 46.2153C70.357 41.7437 75.7661 39.0627 82.015 39.0625C86.9489 39.0683 91.6791 41.0308 95.1679 44.5196C98.6569 48.0086 100.619 52.7391 100.625 57.6733C100.624 68.2988 92.7033 78.1174 84.2519 85.5188C75.866 92.8628 67.2947 97.5351 66.6291 97.8874Z" stroke="white" stroke-width="2.5"/>
</svg>
