<svg width="132" height="132" viewBox="0 0 132 132" fill="none" xmlns="http://www.w3.org/2000/svg">
<circle cx="66" cy="66" r="64" fill="#ED1D2A" stroke="white" stroke-width="4"/>
<path d="M93.7686 61.5795C95.1482 55.9983 95.6718 50.2171 95.8864 45.178C97.2581 45.7196 97.94 46.1599 98.389 46.7821C98.7358 47.2641 98.9425 47.859 99.0524 48.8225C99.1653 49.8119 99.1668 51.082 99.1668 52.8868V53.1363C99.1668 54.6251 99.1657 55.6699 99.0834 56.4946C99.0033 57.2973 98.8522 57.8099 98.5976 58.2429C98.3432 58.6755 97.9687 59.0562 97.3053 59.5167C96.6238 59.9897 95.7107 60.4989 94.4085 61.2245C94.4084 61.2245 94.4083 61.2246 94.4082 61.2246L93.7686 61.5795ZM36.1139 45.1786C36.3286 50.2178 36.8523 55.9991 38.2343 61.5805L37.5921 61.2246C37.5919 61.2245 37.5916 61.2243 37.5913 61.2242C36.2894 60.4988 35.3765 59.9897 34.695 59.5167C34.0317 59.0562 33.6571 58.6755 33.4027 58.2429C33.1481 57.81 32.9971 57.2973 32.917 56.4946C32.8346 55.6699 32.8335 54.6251 32.8335 53.1363V52.8868C32.8335 51.0838 32.835 49.8136 32.9479 48.8237C33.0579 47.8593 33.2648 47.2636 33.6117 46.7817C34.0604 46.16 34.7419 45.7198 36.1139 45.1786Z" stroke="white" stroke-width="2"/>
<path d="M66.0063 33.3333L66.0001 33.3333C59.9965 33.3333 55.0576 33.862 51.2954 34.4979L51.2947 34.498C47.2676 35.1769 45.9547 35.4652 44.7481 36.9503C43.552 38.4264 43.5378 39.9344 43.7155 44.4359L66.0063 33.3333ZM66.0063 33.3333C70.9311 33.3129 75.8489 33.7027 80.709 34.4986C84.7338 35.1771 86.0462 35.4657 87.2526 36.9508L87.2534 36.9518C88.4508 38.4234 88.4627 39.9308 88.2847 44.4363C87.9925 51.8257 87.0492 59.9345 84.1221 66.3582C81.2361 72.6917 76.4796 77.2987 68.4221 78.0571L67.0626 78.185V79.5505V91.625V93.125H68.5626H73.4476C73.8905 93.1253 74.3196 93.2789 74.6621 93.5599C75.0045 93.8408 75.2391 94.2317 75.3259 94.666L75.3262 94.6674L75.9753 97.8995L76.2173 99.1042H77.446H86.5001C86.7819 99.1042 87.0522 99.2161 87.2514 99.4154C87.4507 99.6146 87.5626 99.8849 87.5626 100.167C87.5626 100.448 87.4507 100.719 87.2514 100.918C87.0522 101.117 86.7819 101.229 86.5001 101.229H45.5001C45.2183 101.229 44.9481 101.117 44.7488 100.918C44.5496 100.719 44.4376 100.448 44.4376 100.167C44.4376 99.8849 44.5496 99.6146 44.7488 99.4154C44.9481 99.2161 45.2183 99.1042 45.5001 99.1042H54.5543H55.783L56.0249 97.8995L56.6741 94.6674L56.6744 94.666C56.7612 94.2317 56.9957 93.8408 57.3382 93.5599C57.6806 93.2789 58.1098 93.1253 58.5527 93.125H63.4376H64.9376V91.625V79.5505V78.185M66.0063 33.3333L64.9376 78.185M64.9376 78.185L63.5782 78.0571M64.9376 78.185L63.5782 78.0571M63.5782 78.0571C55.5209 77.2987 50.7652 72.691 47.8795 66.357M63.5782 78.0571L47.8795 66.357M47.8795 66.357C44.9528 59.9329 44.0095 51.8242 43.7155 44.4363L47.8795 66.357Z" stroke="white" stroke-width="3"/>
<path d="M45.5 44.5V40L47.5 38L49.5 37L51 36.5L54 36H55H55.5L57 35.5H58H59H60.5H61.5H63H64.5H66.5H68H71.5L75 36L81.5 37L86 39.5V42V46V48.5V51.5L85 55.5L84.5 59L83.5 62L82 66.5L79.5 70L77.5 72L75 74L72.5 75.5L69.5 76H66.5H63L59.5 75.5L57 74L55.5 73L53.5 71L50.5 66.5L48.5 62L46.5 51.5L45.5 44.5Z" fill="#ED1D2A" stroke="#ED1D2A"/>
</svg>
