<svg width="50" height="50" viewBox="0 0 50 50" fill="none" xmlns="http://www.w3.org/2000/svg">
<path d="M25 7.5C24.0054 7.5 23.0516 7.89509 22.3483 8.59835C21.6451 9.30161 21.25 10.2554 21.25 11.25C21.25 12.2446 21.6451 13.1984 22.3483 13.9017C23.0516 14.6049 24.0054 15 25 15C25.9946 15 26.9484 14.6049 27.6517 13.9017C28.3549 13.1984 28.75 12.2446 28.75 11.25C28.75 10.2554 28.3549 9.30161 27.6517 8.59835C26.9484 7.89509 25.9946 7.5 25 7.5ZM18.75 11.25C18.75 9.5924 19.4085 8.00269 20.5806 6.83058C21.7527 5.65848 23.3424 5 25 5C26.6576 5 28.2473 5.65848 29.4194 6.83058C30.5915 8.00269 31.25 9.5924 31.25 11.25C31.25 12.9076 30.5915 14.4973 29.4194 15.6694C28.2473 16.8415 26.6576 17.5 25 17.5C23.3424 17.5 21.7527 16.8415 20.5806 15.6694C19.4085 14.4973 18.75 12.9076 18.75 11.25ZM38.75 10C38.087 10 37.4511 10.2634 36.9822 10.7322C36.5134 11.2011 36.25 11.837 36.25 12.5C36.25 13.163 36.5134 13.7989 36.9822 14.2678C37.4511 14.7366 38.087 15 38.75 15C39.413 15 40.0489 14.7366 40.5178 14.2678C40.9866 13.7989 41.25 13.163 41.25 12.5C41.25 11.837 40.9866 11.2011 40.5178 10.7322C40.0489 10.2634 39.413 10 38.75 10ZM33.75 12.5C33.75 11.1739 34.2768 9.90215 35.2145 8.96447C36.1521 8.02678 37.4239 7.5 38.75 7.5C40.0761 7.5 41.3479 8.02678 42.2855 8.96447C43.2232 9.90215 43.75 11.1739 43.75 12.5C43.75 13.8261 43.2232 15.0979 42.2855 16.0355C41.3479 16.9732 40.0761 17.5 38.75 17.5C37.4239 17.5 36.1521 16.9732 35.2145 16.0355C34.2768 15.0979 33.75 13.8261 33.75 12.5ZM8.75 12.5C8.75 11.837 9.01339 11.2011 9.48223 10.7322C9.95107 10.2634 10.587 10 11.25 10C11.913 10 12.5489 10.2634 13.0178 10.7322C13.4866 11.2011 13.75 11.837 13.75 12.5C13.75 13.163 13.4866 13.7989 13.0178 14.2678C12.5489 14.7366 11.913 15 11.25 15C10.587 15 9.95107 14.7366 9.48223 14.2678C9.01339 13.7989 8.75 13.163 8.75 12.5ZM11.25 7.5C9.92392 7.5 8.65215 8.02678 7.71447 8.96447C6.77678 9.90215 6.25 11.1739 6.25 12.5C6.25 13.8261 6.77678 15.0979 7.71447 16.0355C8.65215 16.9732 9.92392 17.5 11.25 17.5C12.5761 17.5 13.8479 16.9732 14.7855 16.0355C15.7232 15.0979 16.25 13.8261 16.25 12.5C16.25 11.1739 15.7232 9.90215 14.7855 8.96447C13.8479 8.02678 12.5761 7.5 11.25 7.5ZM12.75 37.495L12.5 37.5C11.1739 37.5 9.90215 36.9732 8.96447 36.0355C8.02678 35.0979 7.5 33.8261 7.5 32.5V23.125C7.5 22.9592 7.56585 22.8003 7.68306 22.6831C7.80027 22.5658 7.95924 22.5 8.125 22.5H12.535C12.635 21.5825 12.96 20.73 13.4475 20H8.125C6.4 20 5 21.4 5 23.125V32.5C4.99988 33.5703 5.22885 34.6282 5.6715 35.6027C6.11416 36.5772 6.76026 37.4456 7.56639 38.1497C8.37251 38.8537 9.31999 39.3771 10.3452 39.6846C11.3703 39.9921 12.4495 40.0766 13.51 39.9325C13.1741 39.1481 12.9195 38.3313 12.75 37.495ZM36.49 39.9325C36.82 39.9775 37.1567 40 37.5 40C39.4891 40 41.3968 39.2098 42.8033 37.8033C44.2098 36.3968 45 34.4891 45 32.5V23.125C45 21.4 43.6 20 41.875 20H36.5525C37.0425 20.73 37.365 21.5825 37.465 22.5H41.875C42.0408 22.5 42.1997 22.5658 42.3169 22.6831C42.4342 22.8003 42.5 22.9592 42.5 23.125V32.5C42.5002 33.1778 42.3625 33.8485 42.0955 34.4714C41.8284 35.0944 41.4375 35.6565 40.9465 36.1237C40.4554 36.5908 39.8746 36.9533 39.2391 37.1891C38.6037 37.4248 37.9269 37.5289 37.25 37.495C37.0805 38.3313 36.8259 39.1481 36.49 39.9325ZM18.125 20C16.4 20 15 21.4 15 23.125V35C15 37.6522 16.0536 40.1957 17.9289 42.0711C19.8043 43.9464 22.3478 45 25 45C27.6522 45 30.1957 43.9464 32.0711 42.0711C33.9464 40.1957 35 37.6522 35 35V23.125C35 21.4 33.6 20 31.875 20H18.125ZM17.5 23.125C17.5 22.9592 17.5658 22.8003 17.6831 22.6831C17.8003 22.5658 17.9592 22.5 18.125 22.5H31.875C32.0408 22.5 32.1997 22.5658 32.3169 22.6831C32.4342 22.8003 32.5 22.9592 32.5 23.125V35C32.5 36.9891 31.7098 38.8968 30.3033 40.3033C28.8968 41.7098 26.9891 42.5 25 42.5C23.0109 42.5 21.1032 41.7098 19.6967 40.3033C18.2902 38.8968 17.5 36.9891 17.5 35V23.125Z" fill="#ED1D2A"/>
</svg>
